<?xml version="1.0" standalone="no"?>
<!DOCTYPE svg PUBLIC "-//W3C//DTD SVG 20010904//EN"
 "http://www.w3.org/TR/2001/REC-SVG-20010904/DTD/svg10.dtd">
<svg version="1.0" xmlns="http://www.w3.org/2000/svg"
 width="618.000000pt" height="618.000000pt" viewBox="0 0 618.000000 618.000000"
 preserveAspectRatio="xMidYMid meet">
<metadata>
Created by potrace 1.14, written by Peter Selinger 2001-2017
</metadata>
<g transform="translate(0.000000,618.000000) scale(0.100000,-0.100000)"
fill="#000000" stroke="none">
<path d="M1920 5025 c-158 -25 -335 -93 -457 -176 -250 -170 -399 -430 -457
-799 -5 -27 -17 -43 -53 -70 -26 -19 -57 -55 -70 -80 -22 -41 -23 -55 -19
-145 7 -158 61 -331 154 -489 26 -44 64 -97 84 -118 21 -21 44 -52 52 -70 7
-18 114 -163 237 -323 256 -331 269 -343 390 -353 l73 -7 64 -80 c35 -44 301
-375 591 -735 556 -690 551 -685 612 -662 22 9 506 602 1669 2047 79 99 168
215 197 259 43 64 61 82 100 101 82 38 123 97 179 259 38 109 55 211 60 354 7
201 -27 363 -116 548 -81 168 -222 343 -312 388 -62 31 -146 35 -209 9 l-41
-16 -87 41 c-212 102 -333 132 -526 132 -360 0 -667 -149 -919 -445 l-26 -30
-26 30 c-207 241 -443 382 -723 430 -102 18 -305 18 -421 0z m2937 -367 c141
-146 243 -355 272 -558 13 -94 2 -113 -90 -151 -35 -14 -779 -327 -1654 -694
-1278 -537 -1594 -666 -1611 -659 -27 11 -437 541 -438 567 -1 14 349 174
1714 782 943 420 1724 764 1735 764 12 1 42 -21 72 -51z m-2812 -949 c-445
-198 -817 -367 -826 -375 -15 -13 -18 -12 -31 8 -85 129 -169 419 -139 477 7
11 17 21 24 21 7 1 401 52 877 114 476 63 874 114 885 115 11 0 -344 -162
-790 -360z m3075 42 c0 -47 -76 -241 -100 -256 -10 -6 -721 -78 -726 -73 -3 3
806 346 819 347 4 1 7 -7 7 -18z"/>
</g>
</svg>
